<svg width="152" height="28" viewBox="0 0 152 28" fill="none" xmlns="http://www.w3.org/2000/svg">
<path d="M12.3735 27.3883H23.0353L28.2442 0H17.5824L12.3735 27.3883Z" fill="#FF4869"/>
<path d="M0 27.3883H10.6618L5.2089 0L0 27.3883Z" fill="#FF4869"/>
<path d="M67.7549 5.36006L63.6058 22.0755H57.8259L55.4995 11.8329L53.1252 22.0755H47.3453L43.2441 5.36006H48.3286L50.2952 16.7882L52.9573 5.36006H58.1137L60.7039 16.6934L62.6705 5.36006H67.7549Z" fill="#FF4869"/>
<path d="M79.247 19.3489H73.2512L72.3398 22.0755H67.3993L73.5629 5.36006H78.9831L85.1228 22.0755H80.1583L79.247 19.3489ZM78.0718 15.7924L76.2491 10.3866L74.4503 15.7924H78.0718Z" fill="#FF4869"/>
<path d="M98.1908 5.36006V9.05881H93.682V22.0755H88.9813V9.05881H84.5204V5.36006H98.1908Z" fill="#FF4869"/>
<path d="M98.1552 13.6822C98.1552 12.0383 98.499 10.5762 99.1865 9.2959C99.89 7.99976 100.881 6.99604 102.16 6.28475C103.44 5.55764 104.91 5.19409 106.573 5.19409C108.684 5.19409 110.459 5.75523 111.898 6.87749C113.337 7.98396 114.264 9.49349 114.68 11.4061H109.619C109.315 10.7738 108.892 10.2917 108.348 9.95978C107.82 9.62784 107.205 9.46187 106.501 9.46187C105.414 9.46187 104.543 9.84914 103.887 10.6237C103.248 11.3824 102.928 12.4019 102.928 13.6822C102.928 14.9784 103.248 16.0137 103.887 16.7882C104.543 17.547 105.414 17.9263 106.501 17.9263C107.205 17.9263 107.82 17.7603 108.348 17.4284C108.892 17.0965 109.315 16.6144 109.619 15.9821H114.68C114.264 17.8947 113.337 19.4121 111.898 20.5344C110.459 21.6409 108.684 22.1941 106.573 22.1941C104.91 22.1941 103.44 21.8384 102.16 21.1271C100.881 20.4 99.89 19.3963 99.1865 18.116C98.499 16.8198 98.1552 15.3419 98.1552 13.6822Z" fill="#FF4869"/>
<path d="M130.84 5.36006V22.0755H126.139V15.3656H120.407V22.0755H115.706V5.36006H120.407V11.6432H126.139V5.36006H130.84Z" fill="#FF4869"/>
<path d="M137.031 5.36006V22.0755H132.331V5.36006H137.031Z" fill="#FF4869"/>
<path d="M151.244 5.36006V9.05881H146.735V22.0755H142.035V9.05881H137.574V5.36006H151.244Z" fill="#FF4869"/>
</svg>
