<svg width="16" height="15" viewBox="0 0 16 15" fill="none" xmlns="http://www.w3.org/2000/svg">
<path fill-rule="evenodd" clip-rule="evenodd" d="M7.7208 12.1468C7.89559 12.0549 8.10441 12.0549 8.2792 12.1468L11.6262 13.9064C12.0664 14.1378 12.5808 13.764 12.4968 13.2739L11.8575 9.54697C11.8242 9.35233 11.8887 9.15373 12.0301 9.01589L14.7379 6.37646C15.094 6.02934 14.8975 5.42455 14.4054 5.35304L10.6633 4.80929C10.4679 4.78089 10.2989 4.65815 10.2115 4.48107L8.53804 1.09019C8.31795 0.644243 7.68205 0.644244 7.46196 1.09019L5.78846 4.48107C5.70106 4.65815 5.53212 4.78089 5.3367 4.80929L1.59464 5.35304C1.10251 5.42455 0.906007 6.02934 1.26212 6.37646L3.96989 9.01589C4.1113 9.15373 4.17583 9.35233 4.14245 9.54697L3.50323 13.2739C3.41916 13.764 3.93362 14.1378 4.3738 13.9064L7.7208 12.1468Z" fill="#FF4869" stroke="#FF4869" stroke-linejoin="round"/>
</svg>
